<?xml version="1.0" encoding="UTF-8"?>
<!DOCTYPE svg PUBLIC "-//W3C//DTD SVG 1.1//EN" "http://www.w3.org/Graphics/SVG/1.1/DTD/svg11.dtd">
<!-- Creator: CorelDRAW X7 -->
<svg xmlns="http://www.w3.org/2000/svg" xml:space="preserve" width="2.54mm" height="2.54mm" version="1.1" style="shape-rendering:geometricPrecision; text-rendering:geometricPrecision; image-rendering:optimizeQuality; fill-rule:evenodd; clip-rule:evenodd"
viewBox="0 0 254 254"
 xmlns:xlink="http://www.w3.org/1999/xlink">
 <defs>
  <style type="text/css">
   <![CDATA[
    .fil0 {fill:white}
   ]]>
  </style>
 </defs>
 <g id="Layer_x0020_1">
  <metadata id="CorelCorpID_0Corel-Layer"/>
  <path class="fil0" d="M72 54c0,3 -1,5 -3,6 -4,-3 -38,-38 -46,-46 -2,-2 -7,-2 -7,2 0,3 9,11 11,13 5,5 34,33 36,37l-2 2c-3,-1 -22,-21 -24,-23 -2,-2 -23,-24 -24,-24 -3,0 -5,1 -5,4 0,2 9,11 11,13 5,5 34,33 36,36 -2,2 -4,4 -8,3 -3,-1 -32,-32 -38,-37 -2,-2 -4,-5 -8,-5 -3,0 -4,3 -4,6 0,2 9,12 11,14l12 14c1,2 1,2 3,4 0,1 2,2 3,3 2,3 3,5 6,7 3,5 7,10 12,14 20,15 33,-5 53,17l16 17c-1,3 -9,10 -11,12 -16,15 -30,32 -46,47 -4,4 -8,7 -11,11l-6 6c-5,5 -14,13 -14,21 0,5 1,10 4,13 3,2 7,5 12,5l0 0c8,0 11,-4 14,-8l73 -90c2,2 4,4 6,6l20 22c3,3 6,6 8,10 3,4 16,16 20,22l27 29c4,4 7,9 15,9l0 0c8,0 17,-7 17,-15 0,-11 -4,-12 -10,-18 -1,-2 -2,-2 -3,-3 -4,-3 -6,-6 -10,-9 -1,-1 -2,-2 -3,-3l-38 -34c-3,-3 -7,-6 -10,-9 -1,-1 -1,-2 -3,-3 -3,-3 -6,-6 -9,-9 -5,-4 -9,-8 -13,-11 0,-3 21,-28 22,-28 2,-3 4,-5 6,-6 15,-8 34,2 48,-16 11,-15 24,-34 24,-52l0 -5c0,-10 -1,-21 -14,-21 -14,0 -31,5 -41,13 -4,4 -8,7 -12,11 -5,5 -11,9 -15,16 -4,9 -3,15 -3,23 0,8 2,16 -5,24 -1,1 -2,2 -3,3 -5,6 -12,12 -17,18 -2,2 -3,4 -6,6 -1,-1 -2,-2 -3,-3 -1,-2 -2,-2 -3,-4 -3,-2 -5,-3 -7,-6 -5,-5 -9,-7 -12,-14 -8,-15 6,-31 -16,-49l-7 -6c-1,-1 -2,-2 -3,-3l-11 -9c-4,-4 -9,-7 -14,-12 -2,-2 -12,-11 -14,-11 -4,0 -7,3 -6,7 1,2 4,5 6,7l31 31c2,2 5,4 5,8z"/>
 </g>
</svg>
